# xmcd
#
# Track frame offsets:
#	150
#	18547
#	36367
#	52564
#	70367
#	87607
#	107315
#	122225
#	139280
#	160725
#	177675
#	191147
#	206577
#	219330
#	237902
#	250652
#	268220
#	284935
#
# Disc length: 4148 seconds
# Revision: 2
# Processed by: cddbd v1.5.2PL0 Copyright (c) Steve Scherf et al.
# Submitted via: dBpowerAMP V12.0
#
DISCID=18103212
DTITLE=Various Artist - Songbook - A Collection Of Hits
DYEAR=1997
DGENRE=Country
TTITLE0=Trisha Yearwood - How Do I Live (Theme From Con Air)
TTITLE1=Trisha Yearwood - Down On My Knees
TTITLE2=Trisha Yearwood and Garth Brooks - In Anothers Eyes
TTITLE3=Trisha Yearwood - The Song Remembers When
TTITLE4=Trisha Yearwood - The Woman Before Me
TTITLE5=Trisha Yearwood - Walk Away Joe
TTITLE6=Trisha Yearwood - You Can Sleep While I Drive
TTITLE7=Trisha Yearwood - A Lover Is Forever
TTITLE8=Trisha Yearwood - On A Bus To St. Cloud
TTITLE9=Trisha Yearwood - Believe Me Baby
TTITLE10=Trisha Yearwood - Perfect Love
TTITLE11=Trisha Yearwood - Thinkin' About You
TTITLE12=Trisha Yearwood - Xxx's and Ooo's (An American Girl)
TTITLE13=Trisha Yearwood - She's In Love With The Boy
TTITLE14=Trisha Yearwood - The Wrong Side Of Memphis
TTITLE15=Trisha Yearwood and Lee Kernaghan - Save The Land
TTITLE16=Trisha Yearwood - Like We Never Had A Broken Heart
TTITLE17=Trisha Yearwood - The Flame
EXTD=
EXTT0=
EXTT1=
EXTT2=
EXTT3=
EXTT4=
EXTT5=
EXTT6=
EXTT7=
EXTT8=
EXTT9=
EXTT10=
EXTT11=
EXTT12=
EXTT13=
EXTT14=
EXTT15=
EXTT16=
EXTT17=
PLAYORDER=
